<svg width="217" height="32" viewBox="0 0 217 32" fill="none" xmlns="http://www.w3.org/2000/svg">
<path d="M27.8925 29.6538V1.68836C27.8925 0.755954 28.6406 0 29.5633 0H34.2896C34.9733 0 35.6214 0.307253 36.0585 0.838226L48.6486 16.1365C49.1321 16.7239 50.0777 16.3784 50.0777 15.6145V2.31423C50.0777 1.03615 51.1031 0.00018032 52.3677 0.00018032H67.6023C68.8671 0.00018032 69.8923 1.03633 69.8923 2.31423V5.32813C69.8923 6.38809 69.0419 7.24743 67.993 7.24743H57.8146C57.3684 7.24743 57.0067 7.61296 57.0067 8.06382V13.4329C57.0067 13.8838 57.3684 14.2493 57.8146 14.2493H60.0887C60.5349 14.2493 60.8967 13.8838 60.8967 13.4329V13.1578C60.8967 12.6669 61.4482 12.3836 61.8406 12.673L66.8324 16.3539C67.2491 16.6611 67.2781 17.2789 66.8919 17.6246L62.249 21.78C61.8656 22.123 61.2613 21.848 61.2613 21.3307C61.2613 20.8799 60.8995 20.5144 60.4533 20.5144H57.6928C57.2467 20.5144 56.8849 20.8799 56.8849 21.3307V29.8348C56.8849 31.0304 55.9256 31.9998 54.7424 31.9998H52.2027C51.0147 31.9998 49.8927 31.4474 49.1607 30.5022L36.2804 13.8713C35.8619 13.331 35.0038 13.6301 35.0038 14.3161V29.6546C35.0038 30.95 33.9647 32 32.6827 32H30.2134C28.9315 32 27.8923 30.95 27.8923 29.6546L27.8925 29.6538Z" fill="url(#paint0_linear_294_76)"/>
<path d="M98.3733 25.0004H94.2084L86.6579 13.4893C86.2148 12.8168 85.9083 12.3099 85.738 11.969H85.6868C85.7547 12.6164 85.7889 13.6045 85.7889 14.9331V25.0004H81.8923V6.68005H86.3384L93.6077 17.8332C93.9401 18.3359 94.2465 18.8341 94.5277 19.3279H94.5789C94.5107 18.9023 94.4767 18.0631 94.4767 16.8111V6.68005H98.3733V25.0004Z" fill="#EFEFEF"/>
<path d="M113.921 19.6088H105.387C105.523 21.5083 106.72 22.4577 108.977 22.4577C110.416 22.4577 111.681 22.1173 112.772 21.4359V24.3488C111.562 24.9962 109.991 25.3197 108.057 25.3197C105.945 25.3197 104.306 24.7341 103.139 23.5628C101.972 22.3918 101.388 20.7584 101.388 18.6636C101.388 16.4916 102.019 14.7711 103.279 13.5019C104.54 12.2331 106.09 11.5985 107.93 11.5985C109.837 11.5985 111.313 12.1652 112.356 13.2976C113.4 14.4304 113.921 15.9678 113.921 17.9095V19.6086V19.6088ZM110.178 17.1304C110.178 15.2568 109.42 14.3199 107.904 14.3199C107.257 14.3199 106.697 14.5882 106.224 15.1249C105.751 15.6615 105.464 16.3301 105.362 17.1304H110.178Z" fill="#EFEFEF"/>
<path d="M115.467 24.6552V21.3846C116.132 21.7851 116.794 22.0832 117.454 22.2789C118.114 22.4751 118.738 22.5728 119.325 22.5728C120.041 22.5728 120.605 22.4751 121.018 22.2789C121.431 22.0832 121.638 21.7851 121.638 21.3846C121.638 21.129 121.544 20.9164 121.357 20.7458C121.169 20.5757 120.929 20.4262 120.635 20.2987C120.341 20.171 120.019 20.056 119.67 19.9538C119.321 19.8517 118.984 19.7367 118.661 19.609C118.141 19.4133 117.684 19.2025 117.287 18.9768C116.891 18.7511 116.559 18.4894 116.291 18.191C116.023 17.8932 115.818 17.5483 115.678 17.1564C115.537 16.7645 115.467 16.3002 115.467 15.7638C115.467 15.0312 115.627 14.4013 115.946 13.873C116.265 13.3447 116.691 12.9127 117.224 12.5759C117.756 12.2397 118.365 11.9927 119.051 11.835C119.736 11.6774 120.449 11.5986 121.19 11.5986C121.77 11.5986 122.357 11.6434 122.954 11.7328C123.549 11.8222 124.137 11.9524 124.717 12.1225V15.2397C124.206 14.9416 123.658 14.7181 123.075 14.5689C122.491 14.42 121.919 14.3454 121.357 14.3454C121.092 14.3454 120.843 14.369 120.609 14.4155C120.375 14.4623 120.168 14.5307 119.99 14.6201C119.811 14.7095 119.67 14.8244 119.568 14.9647C119.466 15.1053 119.415 15.2651 119.415 15.4438C119.415 15.6826 119.491 15.8869 119.645 16.057C119.798 16.2273 119.998 16.3746 120.245 16.4979C120.492 16.6215 120.767 16.7322 121.069 16.83C121.371 16.9279 121.671 17.0281 121.97 17.1303C122.506 17.3179 122.992 17.5222 123.426 17.7435C123.86 17.965 124.233 18.2247 124.544 18.5229C124.855 18.8212 125.093 19.1703 125.259 19.5706C125.425 19.9711 125.509 20.4477 125.509 21.0013C125.509 21.7762 125.34 22.4387 125.004 22.9879C124.667 23.5371 124.22 23.9844 123.662 24.3292C123.104 24.6741 122.462 24.9255 121.733 25.083C121.005 25.2408 120.249 25.3196 119.466 25.3196C118.026 25.3196 116.693 25.098 115.467 24.6552H115.467Z" fill="#EFEFEF"/>
<path d="M135.742 24.8471C135.146 25.1622 134.248 25.32 133.047 25.32C130.202 25.32 128.78 23.8423 128.78 20.8868V14.8948H126.659V11.9181H128.78V9.09455L132.804 7.9447V11.9181H135.743V14.8948H132.804V20.184C132.804 21.5467 133.345 22.2281 134.427 22.2281C134.852 22.2281 135.291 22.1048 135.743 21.8577V24.8471H135.742Z" fill="#EFEFEF"/>
<path d="M149.004 10.0398H142.539V14.537H148.48V17.8844H142.539V25.0004H138.412V6.68005H149.003V10.0398H149.004Z" fill="#EFEFEF"/>
<path d="M155.66 25.0004H151.623V6.68005H155.66V25.0004Z" fill="#EFEFEF"/>
<path d="M165.293 25.3198C163.112 25.3198 161.398 24.7088 160.15 23.4864C158.902 22.2644 158.278 20.6054 158.278 18.5103C158.278 16.347 158.926 14.6543 160.22 13.4318C161.515 12.2099 163.265 11.5986 165.471 11.5986C167.643 11.5986 169.346 12.2099 170.582 13.4318C171.817 14.6543 172.434 16.2702 172.434 18.2801C172.434 20.4521 171.797 22.1684 170.524 23.4288C169.251 24.6894 167.507 25.3198 165.292 25.3198H165.293ZM165.395 14.6903C164.441 14.6903 163.7 15.0182 163.172 15.674C162.644 16.33 162.38 17.2583 162.38 18.4589C162.38 20.9715 163.393 22.2279 165.421 22.2279C167.354 22.2279 168.321 20.9375 168.321 18.3567C168.321 15.9122 167.345 14.6903 165.395 14.6903Z" fill="#EFEFEF"/>
<path d="M194 11.918L190.231 25.0004H185.989L184.06 17.3349C183.932 16.8239 183.86 16.266 183.843 15.6612H183.766C183.707 16.3254 183.621 16.8664 183.511 17.2837L181.441 25.0004H177.251L173.559 11.918H177.673L179.474 20.4521C179.559 20.8524 179.622 21.3381 179.665 21.9085H179.742C179.785 21.3125 179.861 20.8098 179.972 20.4009L182.221 11.918H186.066L188.085 20.4521C188.136 20.6651 188.195 21.1591 188.264 21.9341H188.353C188.396 21.4403 188.464 20.9462 188.557 20.4521L190.256 11.918H194Z" fill="#EFEFEF"/>
<defs>
<linearGradient id="paint0_linear_294_76" x1="27.8925" y1="15.9995" x2="69.8925" y2="15.9995" gradientUnits="userSpaceOnUse">
<stop offset="0.259" stop-color="#E0234E"/>
<stop offset="0.531" stop-color="#5623E0"/>
</linearGradient>
</defs>
</svg>
