<svg width="40" height="31" viewBox="0 0 40 31" fill="none" xmlns="http://www.w3.org/2000/svg">
<path d="M0.000168653 28.7271V1.6356C0.000168653 0.732331 0.712651 0 1.59144 0H6.09266C6.74375 0 7.36101 0.297651 7.77728 0.812031L19.7679 15.6322C20.2284 16.2013 21.1289 15.8666 21.1289 15.1266V2.24191C21.1289 1.00377 22.1055 0.000174685 23.3099 0.000174685H37.819C39.0236 0.000174685 40 1.00394 40 2.24191V5.16163C40 6.18846 39.1901 7.02095 38.1911 7.02095H28.4974C28.0725 7.02095 27.728 7.37505 27.728 7.81183V13.0131C27.728 13.4499 28.0725 13.804 28.4974 13.804H30.6633C31.0882 13.804 31.4327 13.4499 31.4327 13.0131V12.7466C31.4327 12.271 31.958 11.9966 32.3317 12.277L37.0858 15.8428C37.4827 16.1405 37.5102 16.7389 37.1424 17.0738L32.7206 21.0994C32.3555 21.4316 31.7799 21.1653 31.7799 20.6642C31.7799 20.2274 31.4354 19.8733 31.0105 19.8733H28.3814C27.9565 19.8733 27.612 20.2274 27.612 20.6642V28.9025C27.612 30.0607 26.6983 30.9998 25.5715 30.9998H23.1528C22.0213 30.9998 20.9528 30.4646 20.2556 29.549L7.98864 13.4378C7.59006 12.9144 6.77283 13.2042 6.77283 13.8687V28.7278C6.77283 29.9828 5.78318 31 4.56227 31H2.21056C0.989653 31 0 29.9828 0 28.7278L0.000168653 28.7271Z" fill="url(#paint0_linear_295_492)"/>
<defs>
<linearGradient id="paint0_linear_295_492" x1="0.000170043" y1="15.4996" x2="40.0002" y2="15.4996" gradientUnits="userSpaceOnUse">
<stop offset="0.259" stop-color="#E0234E"/>
<stop offset="0.531" stop-color="#5623E0"/>
</linearGradient>
</defs>
</svg>
