<svg width="236" height="178" viewBox="0 0 236 178" fill="none" xmlns="http://www.w3.org/2000/svg">
    <path d="M0.000991821 164.361V9.35799C0.000991821 4.18999 4.19099 0 9.35899 0H35.83C39.659 0 43.289 1.703 45.737 4.646L116.252 89.439C118.96 92.695 124.256 90.78 124.256 86.546V12.827C124.256 5.743 129.999 0.000999451 137.082 0.000999451H222.408C229.492 0.000999451 235.234 5.744 235.234 12.827V29.532C235.234 35.407 230.471 40.17 224.596 40.17H167.589C165.09 40.17 163.064 42.196 163.064 44.695V74.454C163.064 76.953 165.09 78.979 167.589 78.979H180.326C182.825 78.979 184.851 76.953 184.851 74.454V72.929C184.851 70.208 187.94 68.638 190.138 70.242L218.096 90.644C220.43 92.347 220.592 95.771 218.429 97.687L192.425 120.719C190.278 122.62 186.893 121.096 186.893 118.229C186.893 115.73 184.867 113.704 182.368 113.704H166.907C164.408 113.704 162.382 115.73 162.382 118.229V165.364C162.382 171.991 157.009 177.364 150.382 177.364H136.158C129.504 177.364 123.22 174.302 119.12 169.063L46.98 76.884C44.636 73.889 39.83 75.547 39.83 79.349V164.365C39.83 171.545 34.01 177.365 26.83 177.365H13C5.82 177.365 0 171.545 0 164.365L0.000991821 164.361Z" fill="url(#paint0_linear_41_126)"/>
    <defs>
        <linearGradient id="paint0_linear_41_126" x1="0.001" y1="88.68" x2="235.235" y2="88.68" gradientUnits="userSpaceOnUse">
            <stop offset="0.259" stop-color="#EBEBEB"/>
            <stop offset="0.531" stop-color="#F8F8F8"/>
        </linearGradient>
    </defs>
</svg>