<svg data-v-c197805e="" width="48" height="48" viewBox="0 0 100 100" xmlns="http://www.w3.org/2000/svg" class="axis-logo-svg q-mr-sm"><defs><filter id="logo-glow" x="-50%" y="-50%" width="200%" height="200%"><feGaussianBlur stdDeviation="2" result="coloredBlur"></feGaussianBlur><feMerge><feMergeNode in="coloredBlur"></feMergeNode><feMergeNode in="SourceGraphic"></feMergeNode></feMerge></filter></defs><g class="outer-rings"><path d="M50 10 A40 40 0 0 1 90 50" stroke="var(--axis-primary)" stroke-width="4" fill="none" stroke-linecap="round" class="ring-segment segment-1"></path><path d="M50 90 A40 40 0 0 1 10 50" stroke="var(--axis-primary)" stroke-width="4" fill="none" stroke-linecap="round" class="ring-segment segment-2"></path></g><g class="brackets"><path d="M35 40 L35 35 L40 35" class="bracket tl"></path><path d="M65 40 L65 35 L60 35" class="bracket tr"></path><path d="M35 60 L35 65 L40 65" class="bracket bl"></path><path d="M65 60 L65 65 L60 65" class="bracket br"></path></g><g class="data-lines"><line x1="15" y1="50" x2="35" y2="50" class="flow-line left"></line><line x1="65" y1="50" x2="85" y2="50" class="flow-line right"></line></g><g class="core-group"><rect x="42" y="42" width="16" height="16" class="logo-core" fill="none" stroke="var(--axis-primary)" stroke-width="3" filter="url(#logo-glow)"></rect><circle cx="50" cy="50" r="2" fill="var(--axis-primary)" class="core-dot"></circle></g></svg>