<svg width="512" height="512" viewBox="0 0 512 512" fill="none" xmlns="http://www.w3.org/2000/svg">
    <path d="M143.001 243.361V88.358C143.001 83.19 147.191 79 152.359 79H178.83C182.659 79 186.289 80.703 188.737 83.646L259.252 168.439C261.96 171.695 267.256 169.78 267.256 165.546V91.827C267.256 84.743 272.999 79.001 280.082 79.001H365.408C372.492 79.001 378.234 84.744 378.234 91.827V108.532C378.234 114.407 373.471 119.17 367.596 119.17H310.589C308.09 119.17 306.064 121.196 306.064 123.695V153.454C306.064 155.953 308.09 157.979 310.589 157.979H323.326C325.825 157.979 327.851 155.953 327.851 153.454V151.929C327.851 149.208 330.94 147.638 333.138 149.242L361.096 169.644C363.43 171.347 363.592 174.771 361.429 176.687L335.425 199.719C333.278 201.62 329.893 200.096 329.893 197.229C329.893 194.73 327.867 192.704 325.368 192.704H309.907C307.408 192.704 305.382 194.73 305.382 197.229V244.364C305.382 250.991 300.009 256.364 293.382 256.364H279.158C272.504 256.364 266.22 253.302 262.12 248.063L189.98 155.884C187.636 152.889 182.83 154.547 182.83 158.349V243.365C182.83 250.545 177.01 256.365 169.83 256.365H156C148.82 256.365 143 250.545 143 243.365L143.001 243.361Z" fill="url(#paint0_linear_41_111)"/>
    <path d="M98.305 394.889H81.386L50.714 348.128C48.914 345.396 47.669 343.337 46.977 341.952H46.769C47.045 344.582 47.184 348.596 47.184 353.993V394.889H31.355V320.467H49.416L78.946 365.774C80.296 367.816 81.541 369.84 82.683 371.846H82.891C82.614 370.117 82.476 366.708 82.476 361.622V320.467H98.305V394.889Z" fill="#efefef"/>
    <path d="M161.465 372.987H126.797C127.35 380.703 132.212 384.56 141.38 384.56C147.227 384.56 152.364 383.177 156.794 380.409V392.242C151.881 394.872 145.497 396.186 137.644 396.186C129.063 396.186 122.403 393.807 117.663 389.049C112.922 384.292 110.553 377.657 110.553 369.147C110.553 360.324 113.113 353.335 118.234 348.179C123.354 343.025 129.652 340.447 137.125 340.447C144.875 340.447 150.869 342.749 155.108 347.349C159.346 351.951 161.465 358.196 161.465 366.084V372.986V372.987ZM146.259 362.919C146.259 355.308 143.179 351.502 137.021 351.502C134.391 351.502 132.116 352.592 130.196 354.772C128.276 356.952 127.108 359.668 126.693 362.919H146.259Z" fill="#efefef"/>
    <path d="M167.745 393.487V380.201C170.444 381.828 173.134 383.039 175.815 383.834C178.496 384.631 181.031 385.028 183.418 385.028C186.324 385.028 188.616 384.631 190.294 383.834C191.972 383.039 192.811 381.828 192.811 380.201C192.811 379.163 192.43 378.299 191.669 377.606C190.907 376.915 189.93 376.308 188.736 375.79C187.543 375.271 186.236 374.804 184.818 374.389C183.399 373.974 182.032 373.507 180.718 372.988C178.607 372.193 176.748 371.337 175.139 370.42C173.53 369.503 172.181 368.44 171.091 367.228C170.001 366.018 169.171 364.617 168.6 363.025C168.029 361.433 167.744 359.547 167.744 357.368C167.744 354.392 168.393 351.833 169.69 349.687C170.987 347.541 172.717 345.786 174.88 344.418C177.042 343.052 179.516 342.049 182.301 341.408C185.086 340.768 187.984 340.448 190.994 340.448C193.347 340.448 195.734 340.63 198.156 340.993C200.577 341.356 202.965 341.885 205.318 342.576V355.239C203.242 354.028 201.018 353.12 198.649 352.514C196.279 351.909 193.952 351.606 191.669 351.606C190.596 351.606 189.584 351.702 188.633 351.891C187.681 352.081 186.842 352.359 186.116 352.722C185.39 353.085 184.819 353.552 184.403 354.122C183.988 354.693 183.78 355.342 183.78 356.068C183.78 357.038 184.092 357.868 184.714 358.559C185.337 359.251 186.15 359.849 187.153 360.35C188.156 360.852 189.272 361.302 190.5 361.699C191.728 362.097 192.947 362.504 194.159 362.919C196.339 363.681 198.311 364.511 200.075 365.41C201.84 366.31 203.353 367.365 204.617 368.576C205.879 369.788 206.848 371.206 207.523 372.832C208.197 374.459 208.535 376.395 208.535 378.644C208.535 381.792 207.851 384.483 206.485 386.714C205.118 388.945 203.301 390.762 201.036 392.163C198.769 393.564 196.158 394.585 193.199 395.225C190.241 395.866 187.17 396.186 183.987 396.186C178.139 396.186 172.725 395.286 167.743 393.487H167.745Z" fill="#efefef"/>
    <path d="M250.107 394.266C247.685 395.546 244.035 396.187 239.158 396.187C227.601 396.187 221.824 390.184 221.824 378.178V353.837H213.209V341.745H221.824V330.275L238.172 325.604V341.745H250.108V353.837H238.172V375.323C238.172 380.859 240.369 383.627 244.762 383.627C246.492 383.627 248.274 383.126 250.108 382.122V394.266H250.107Z" fill="#efefef"/>
    <path d="M303.978 334.115H277.717V352.384H301.85V365.982H277.717V394.889H260.954V320.467H303.977V334.115H303.978Z" fill="#efefef"/>
    <path d="M331.018 394.889H314.618V320.467H331.018V394.889Z" fill="#efefef"/>
    <path d="M370.148 396.187C361.291 396.187 354.328 393.705 349.259 388.739C344.19 383.775 341.655 377.036 341.655 368.525C341.655 359.737 344.284 352.861 349.544 347.895C354.803 342.931 361.913 340.448 370.874 340.448C379.697 340.448 386.616 342.931 391.634 347.895C396.651 352.861 399.159 359.425 399.159 367.59C399.159 376.413 396.572 383.385 391.4 388.505C386.227 393.626 379.143 396.187 370.147 396.187H370.148ZM370.564 353.007C366.688 353.007 363.678 354.339 361.534 357.003C359.388 359.668 358.316 363.439 358.316 368.316C358.316 378.523 362.432 383.627 370.668 383.627C378.522 383.627 382.449 378.385 382.449 367.901C382.449 357.971 378.486 353.007 370.564 353.007Z" fill="#efefef"/>
    <path d="M486.765 341.745L471.454 394.889H454.224L446.388 363.75C445.868 361.674 445.575 359.408 445.505 356.951H445.193C444.951 359.649 444.604 361.847 444.155 363.542L435.748 394.889H418.726L403.727 341.745H420.439L427.756 376.413C428.102 378.039 428.36 380.012 428.534 382.329H428.846C429.019 379.908 429.33 377.866 429.781 376.205L438.915 341.745H454.536L462.736 376.413C462.944 377.278 463.185 379.285 463.463 382.433H463.826C463.999 380.427 464.275 378.42 464.656 376.413L471.558 341.745H486.765Z" fill="#efefef"/>
    <defs>
        <linearGradient id="paint0_linear_41_111" x1="143.001" y1="167.68" x2="378.235" y2="167.68" gradientUnits="userSpaceOnUse">
            <stop offset="0.259" stop-color="#E0234E"/>
            <stop offset="0.531" stop-color="#5623E0"/>
        </linearGradient>
    </defs>
</svg>